<svg height="512" width="512" xmlns="http://www.w3.org/2000/svg"><g transform="scale(.5)"><path d="m540.625 911.457c-19.225.296-38.584 1.216-57.792-.121-87.274-6.07-169.663-40.24-235.521-97.767-56.359-49.229-97.917-113.409-119.578-185.119-9.514-31.499-14.982-64.92-17.061-97.726-1.072-16.908-.282-34.276 1.053-51.128 6.748-85.17 40.772-167.207 97.505-231.346 6.211-7.022 13.051-13.721 19.725-20.298 12.703-12.518 25.683-24.314 39.896-35.104 62.456-47.412 138.126-75.318 216.297-80.137 8.4-.687 17.1-.323 25.532-.363 9.53-.045 19.237-.287 28.754.261 41.937 2.413 84.418 12.353 123.382 27.962 77.589 31.081 143.698 86.48 188.535 156.913 10.062 15.806 19.667 32.441 26.891 49.763l12.075 29.899 1.991 5.902 3.297 9.743c1.129 4.095 2.719 8.088 3.826 12.202 2.931 10.9 5.265 21.964 7.575 33.007 1.656 7.914 1.854 16.233 3.46 24.101 1.715 8.402 1.386 17.74 2.232 26.329.742 7.531.632 15.204.646 22.766.011 6.42.358 12.928.072 19.338-.502 11.258-1.959 22.548-3.381 33.716-3.688 28.957-10.261 57.432-20.339 84.886-4.556 12.409-10.064 24.416-15.699 36.364-5.5 11.661-11.321 23.465-18.075 34.454-11.161 18.16-24.061 35.161-37.627 51.576-10.276 12.434-21.619 23.727-33.43 34.675-44.691 41.428-100.149 73.977-158.981 90.606-27.911 7.889-56.452 11.924-85.26 14.646zm-50.866-769.749c-7.107.333-13.975 1.232-21.04 1.986-19.363 2.069-39.313 5.396-58.092 10.596-66.311 18.36-128.088 56.165-174.53 106.96-34.437 37.663-61.875 83.779-78.046 132.25-2.693 8.071-4.664 16.411-6.87 24.626-3.782 14.083-7.36 28.515-9.26 42.989-3.027 23.067-3.357 47.227-2.259 70.463 1.029 21.766 4.479 43.253 9.36 64.422 1.763 7.645 3.075 15.788 5.806 23.175l7.922 22.826 3.481 9.503c4.342 12.479 11.142 24.837 17.345 36.482 32.216 60.47 80.729 110.797 140.171 144.921 7.341 4.214 14.524 8.617 22.195 12.225 42.811 20.137 88.764 33.082 135.995 36.751 17.402 1.352 34.769 1.07 52.185.444 36.05-2.157 71.881-8.708 105.983-20.787 8.53-3.022 16.724-6.707 24.98-10.389 47.196-21.045 89.404-51.411 123.728-90.104 16.955-19.112 32.126-38.918 45.137-60.961 25.125-42.566 41.741-92.019 47.939-141.027 3.161-24.997 3.549-51.24 2.051-76.408-.544-9.137-1.965-18.342-3.229-27.401-11.656-83.527-56.664-164.556-119.796-220.269-49.681-43.843-110.445-74.657-175.675-87.092-31.126-5.933-63.72-7.499-95.346-6.194z"/><path d="m700.618 749.326c-7.751 1.339-18.516-.729-25.868-3.317-6.28-2.211-12.582-5.52-17.686-9.837-7.291-6.169-13.411-13.646-20.107-20.422-14.058-14.224-28.263-28.274-42.171-42.648-26.94-27.841-54.71-54.833-81.55-82.787-.734.457-.498.239-1.029.811-8.313 8.969-17.901 17.115-26.607 25.768-20.542 20.417-40.923 41.02-61.4 61.508-11.952 11.958-23.931 23.893-35.796 35.938-7.845 7.963-15.705 17.064-24.588 23.827-7.195 5.478-15.531 8.841-24.389 10.484-15.834 2.936-32.038-.665-45.246-9.85-11.154-7.757-20.179-20.896-22.836-34.301-.84-4.242-1.076-8.448-.759-12.773.72-9.845 4.294-20.524 10.108-28.504 5.209-7.149 13.103-13.445 19.349-19.756 16.992-17.167 34.117-34.183 51.27-51.188 17.407-17.254 34.659-34.731 51.911-52.144 9.601-9.692 18.834-19.939 29.149-28.882-3.424-3.914-7.299-7.431-10.954-11.127-5.644-5.707-11.163-11.542-16.731-17.323-16.424-17.054-33.28-33.694-49.932-50.524-9.539-9.64-18.834-19.509-28.386-29.13-7.586-7.642-14.962-15.477-22.522-23.138-6.339-6.425-13.106-12.381-18.572-19.613-5.859-7.753-10.696-16.794-12.542-26.423-2.564-13.37 1.271-27.458 8.837-38.52 9.351-13.672 23.567-20.021 39.414-22.8l6.964-.333c11.085-.09 23.224 2.985 32.628 9.011 7.801 5 14.355 11.701 20.879 18.217 8.661 8.651 17.084 17.542 25.738 26.2 24.648 24.658 49.294 49.328 73.878 74.049 10.543 10.602 20.814 21.431 31.469 31.931 27.283-28.777 56.417-55.898 84.349-84.051 13.878-13.986 27.653-28.058 41.645-41.934 5.908-5.86 11.676-12.387 17.988-17.778 4.579-3.913 9.822-7.049 15.471-9.151 16.123-6.001 33.323-6.093 49.066 1.124 12.088 5.542 24.663 15.121 29.185 28.12 2.67 7.673 4.398 15.172 2.697 23.329-2.091 10.025-5.402 20.516-11.476 28.894-5.159 7.116-12.011 13.356-18.199 19.584-10.774 10.844-21.728 21.507-32.517 32.333-24.716 24.8-49.387 49.641-74.104 74.445-7.891 7.919-15.232 16.348-23.288 24.087 1.718 1.97 3.732 3.595 5.49 5.523 11.048 12.112 22.557 23.685 34.126 35.299 23.562 23.652 47.01 47.43 70.539 71.121 9.88 9.948 19.869 19.748 29.385 30.05 3.83 4.147 8.451 8.532 11.303 13.391 2.161 3.682 4.246 7.219 5.558 11.316l.257.818c.96 2.604 1.411 5.067 2.199 7.656 1.738 5.713.738 11.564.024 17.337-1.127 9.12-5.92 18.355-11.517 25.537-9.911 12.718-24.465 18.613-40.104 20.546zm-379.061-447.725c-6.992 1.421-13.166 4.495-17.121 10.627-3.016 4.673-4.357 11.393-2.978 16.846l.353 1.176.214.87c1.058 3.31 3.676 6.391 5.671 9.179 2.001 2.798 3.801 5.881 6.017 8.499 5.444 6.431 11.582 12.261 17.43 18.317 12.081 12.512 24.26 24.9 36.627 37.129 8.123 8.032 15.902 16.424 23.945 24.539 15.891 16.034 31.931 31.942 47.479 48.309 4.883 5.14 9.939 10.125 14.885 15.205 3.455 3.549 7.466 7.408 9.858 11.773 2.226 4.06 2.828 9.461.834 13.709-2.156 4.594-6.58 8.414-10.075 12.011-7.334 7.548-14.963 14.8-22.446 22.198-29.974 29.636-59.858 59.374-89.558 89.273-7.324 7.374-14.547 14.871-21.942 22.171-4.97 4.907-10.472 9.456-14.855 14.906-3.088 3.839-5.843 8.444-6.422 13.412l-.106.861c-.772 6.966 1.401 12.401 5.803 17.732 4.53 5.486 12.298 9.406 19.371 9.976 9.578.77 17.888-1.542 25.217-7.834 5.353-4.596 10.019-10.049 14.852-15.173 5.738-6.085 11.715-11.967 17.66-17.851 28.95-28.649 57.893-57.346 86.648-86.189 8.137-8.162 16.33-16.268 24.463-24.433 3.622-3.636 7.338-8.342 11.436-11.342 2.902-2.125 6.045-3.226 9.637-2.986 2.23.149 4.691 1.235 6.45 2.613 3.638 2.851 6.762 6.941 10.026 10.246 7.604 7.701 15.282 15.327 22.865 23.052 27.278 27.787 54.92 55.203 82.24 82.938 12.345 12.532 23.346 26.788 36.932 38.038 4.531 3.752 9.603 7.59 15.533 8.642l.666.122c3.631.595 8.08.507 11.722.021 7.753-1.132 15.037-5.917 19.621-12.169 3.473-4.735 4.729-12.393 3.676-18.179-.589-3.231-2.777-6.86-4.846-9.413-4.712-5.813-10.726-10.945-15.931-16.353-10.869-11.292-21.629-22.595-32.705-33.698-25.552-25.617-50.744-51.602-76.307-77.206-6.99-7.001-13.994-13.988-20.986-20.989-4.275-4.28-9.69-8.752-12.844-13.943-2.362-3.886-2.847-8.503-1.183-12.733l.239-.638c1.665-4.156 6.13-7.928 9.263-11.092 5.801-5.857 11.707-11.609 17.513-17.462 31.776-32.028 63.911-63.701 95.566-95.854 7.996-8.121 16.155-16.082 24.157-24.197 4.749-4.815 9.912-9.754 13.95-15.201 2.527-3.407 3.887-7.139 4.475-11.306l.137-.923c.573-4.043.449-8.654-2.063-12.06-5.224-7.081-14.583-11.787-23.216-12.771-10.356-1.179-18.853 2.181-26.748 8.742-5.318 4.42-10.112 9.574-15.062 14.4-10.586 10.323-20.99 20.816-31.401 31.314-21.384 21.565-43.209 42.693-64.444 64.401-8.864 9.063-17.878 17.956-26.864 26.897-4.514 4.49-9.024 9.832-14.135 13.626-3.077 2.285-6.547 3.501-10.425 3.218-2.741-.2-4.915-1.36-6.98-3.136-3.211-2.761-6.146-6.364-9.149-9.396-8.495-8.577-16.824-17.333-25.353-25.871-30.113-30.145-60.045-60.475-90.099-90.681-6.134-6.164-12.271-12.324-18.412-18.48-4.002-4.011-7.91-8.606-12.72-11.641-8.307-5.243-16.352-6.557-26.055-5.788z"/></g></svg>