<?xml version="1.0" encoding="utf-8" ?>
<svg xmlns="http://www.w3.org/2000/svg" xmlns:xlink="http://www.w3.org/1999/xlink" width="512" height="512">
	<path fill="#090808" transform="scale(0.5 0.5)" d="M743.539 736.579C743.554 744.233 743.82 752.016 742.861 759.627C741.116 773.486 736.175 787.78 728.683 799.601C716.471 818.868 695.666 834.107 673.336 838.89C665.674 840.531 657.309 840.178 649.483 840.326C634.158 840.616 618.821 840.532 603.494 840.529C555.907 840.519 508.32 840.419 460.734 840.34C423.827 840.279 386.918 840.413 350.012 840.525C328.123 840.592 305.667 841.925 283.9 839.433C273.07 838.194 262.744 833.405 253.746 827.475C237.997 817.097 226.455 801.266 221.075 783.265C220.139 780.134 219.796 776.892 219.12 773.708C218.232 769.524 218.448 765.229 218.425 760.97C218.389 754.27 218.42 747.573 218.296 740.874L217.101 740.343C201.144 732.986 186.518 717.529 180.665 700.911C175.225 685.468 175.716 668.272 182.734 653.428C189.822 638.435 203.831 625.07 219.477 619.434C219.493 618.43 219.52 617.453 219.393 616.455C218.498 609.413 218.964 601.904 218.971 594.799C218.981 584.758 218.814 574.738 218.523 564.702L216.5 564.018C212.567 562.4 209.055 559.589 205.736 556.983C195.745 549.138 187.324 540.056 182.291 528.22C175.53 512.325 174.675 496.206 181.231 480.12C188.621 461.989 201.893 450.009 219.761 442.45L218.867 392.917C212.81 390.321 207.573 386.818 202.426 382.739C187.639 371.02 178.714 354.016 176.734 335.336C174.471 313.977 188.759 291.175 205.631 279.235C208.418 277.263 211.399 275.48 214.558 274.18C215.545 273.774 216.54 273.383 217.539 273.008C217.684 272.954 217.91 272.988 217.973 272.848C218.115 272.529 217.969 270.729 217.969 270.278C217.97 267.686 217.967 265.091 218.03 262.5C218.51 242.708 224.152 226.09 236.734 210.61C247.279 197.636 262.289 188.645 278.525 184.883C283.677 183.689 289.131 183.258 294.385 182.703C298.115 182.06 302.52 182.455 306.331 182.459C316.182 182.469 326.009 182.782 335.856 182.904C362.081 183.227 388.333 183.002 414.561 183.059C470.344 183.181 526.129 182.895 581.913 182.918C598.784 182.925 615.655 182.933 632.525 182.949C641.601 182.958 650.861 182.623 659.916 183.076C670.398 183.601 680.741 185.506 690.37 189.798C711.78 199.342 726.987 216.962 736.006 238.25C737.439 241.631 739.061 245.318 739.843 248.918L740.017 249.75C741.025 253.152 741.414 256.344 742.189 259.761C744.605 270.409 743.525 282.6 743.549 293.522C743.592 312.557 743.65 331.595 743.554 350.629C743.512 358.857 742.883 367.169 743.162 375.373C749.587 366.141 757.017 358.105 764.43 349.71C771.787 341.378 779.049 332.892 786.129 324.323C794.711 313.938 803.435 303.61 811.844 293.088C818.411 284.87 824.533 275.391 832.396 268.384C839.172 262.346 846.238 259.093 854.972 256.83L856.542 256.435C871.152 253.379 886.712 258.045 898.932 265.997C910.771 273.702 921.514 284.398 927.131 297.5C928.178 299.944 929.304 302.28 929.844 304.903C930.039 305.85 929.923 305.519 930.18 306.24C933.195 314.726 931.56 324.6 929.965 333.16C928.547 340.776 924.159 348.284 919.656 354.488C913.994 362.288 907.126 368.876 900.696 375.999C892.551 385.02 884.54 394.42 876.755 403.756C868.416 413.755 860.345 424 852 434C835.592 453.664 818.868 473.084 802.462 492.75C791.925 505.38 781.777 518.378 771.214 530.984C765.421 537.898 759.515 544.701 753.491 551.415C750.88 554.324 748.139 557.178 745.671 560.209C744.945 561.101 743.487 562.548 743.038 563.565C742.756 564.205 742.938 566.022 742.947 566.71C742.996 570.424 743.258 574.127 743.354 577.84C743.564 585.912 743.51 593.993 743.516 602.067C743.549 646.904 743.536 691.742 743.539 736.579ZM338.834 213.245C329.32 213.324 319.806 213.404 310.291 213.426C303.547 213.441 296.258 212.911 289.576 213.725C278.763 215.043 268.184 220.703 260.63 228.474C255.586 233.664 251.988 240.164 250.2 247.172C249.569 249.642 249.447 252.241 249 254.75C248.327 258.522 247.583 262.242 247.814 266.111L247.897 266.972C252.574 266.948 257.384 266.722 262.041 267.154C278.387 268.669 292.085 274.903 303.743 286.407C308.365 290.968 312.459 296.361 315.221 302.25L318.398 309.1C320.39 313.276 321.655 318.277 322.248 322.865C322.496 324.792 323.019 326.587 323.103 328.548C323.742 343.424 318.713 360.917 309.6 372.75C297.418 388.57 279.864 397.07 260.235 399.38L249.049 399.576L249.35 405.493C250.658 415.765 248.596 426.591 249.61 436.95C255.878 437.69 262.182 437.623 268.422 438.75C284.916 441.729 299.321 451.478 309.568 464.51C316.929 473.872 319.93 484.345 322.765 495.625C323.799 499.738 323.572 504.319 323.174 508.503C322.178 518.973 319.566 529.926 313.991 538.942C304.457 554.361 289.118 565.731 271.365 569.778C263.921 571.475 256.795 571.097 249.365 572.135C249.138 575.892 249.565 579.656 249.56 583.43C249.55 590.601 249.48 597.772 249.447 604.943C249.436 607.157 248.925 611.345 249.8 613.309C269.817 613.634 288.386 618.234 302.695 632.993L307.75 638.77C313.665 646.462 317.443 654.316 320.456 663.5L320.731 664.163C321.58 666.369 321.949 668.975 322.208 671.318C322.842 677.043 323.466 682.262 322.69 688.057C322.24 691.41 322.106 694.996 321.31 698.28C317.82 712.687 309.451 725.537 297.692 734.604C294.848 736.797 291.711 738.864 288.5 740.471C276.103 746.674 261.994 749.551 248.113 748.214C247.689 763.829 248.405 781.334 259.679 793.406C267.785 802.086 275.632 806.659 287.06 809.713C291.549 810.912 296.927 810.482 301.544 810.491C309.555 810.508 317.566 810.486 325.576 810.475C353.891 810.435 382.207 810.322 410.522 810.344C466.829 810.39 523.136 810.425 579.443 810.329C595.442 810.301 611.438 810.28 627.437 810.348C638.585 810.396 649.885 810.809 661.005 809.989C668.538 809.434 675.81 807.144 682.307 803.305C692.874 797.062 700.82 787.942 706.461 777.143C709.208 771.883 711.483 765.411 712.195 759.53C713.015 752.767 712.533 745.393 712.538 738.56L712.908 599.078C702.457 611.237 692.482 623.872 682.163 636.157C665.615 655.856 648.931 675.424 632.423 695.16C626.231 702.563 619.998 709.943 613.846 717.378C609.938 722.1 605.67 728.29 600.673 731.896C598.253 733.642 594.041 734.352 591.161 735.308C581.049 738.666 570.87 742.035 560.903 745.8C551.009 749.536 541.297 753.694 531.25 757.041C525.436 758.978 519.008 761.56 512.868 762.079C506.926 762.581 501.837 761.467 497.228 757.457C493.927 754.585 491.381 750.776 490.381 746.5L490.252 745.981C489.619 743.223 489.702 739.38 490.148 736.589C492.55 721.554 497.588 706.579 501.507 691.884C504.128 682.06 506.608 672.167 509.493 662.418C510.717 658.279 511.963 652.922 514.29 649.276L712.546 412.631C712.432 375.704 713.039 338.769 712.904 301.836C712.873 293.534 712.839 285.233 712.778 276.931C712.736 271.153 713.033 264.883 711.671 259.25C708.026 244.176 699.166 229.816 685.842 221.42C680.525 218.07 675.096 215.845 669.051 214.184C664.158 212.839 658.508 213.019 653.455 213.093C647.015 213.189 640.577 213.336 634.136 213.387C619.382 213.504 604.622 213.483 589.868 213.463C506.202 213.348 422.501 213.915 338.834 213.245ZM865.842 285.669C854.753 287.047 849.328 294.527 842.488 302.331L884.774 333.769L892.737 339.756C895.523 335.469 899.182 330.969 900.533 326L900.804 325.032C901.966 320.769 901.677 316.665 900.673 312.413C898.834 304.631 893.034 298.371 886.474 293.982C880.869 290.232 872.81 285.596 865.842 285.669ZM247.614 296.178C242.204 297.002 237.202 297.79 232.082 299.75C223.42 303.066 217.454 308.481 212.039 315.895L254.25 316.362C261.432 316.372 268.615 316.381 275.797 316.379C279.809 316.378 284.435 316.771 288.357 315.899C287.227 310.642 279.583 305.534 275.25 302.713C267.561 297.707 256.757 294.926 247.614 296.178ZM823.01 326.75C805.801 348.676 787.245 369.537 769.522 391.048C760.602 401.874 751.898 412.904 742.901 423.662C737.575 430.029 731.946 436.15 726.664 442.543C719.448 451.276 712.538 460.286 705.25 468.951C700.153 475.011 694.747 480.826 689.619 486.868C680.085 498.1 670.871 509.614 661.371 520.875C652.293 531.637 642.969 542.202 633.925 553C629.039 558.833 624.434 564.916 619.547 570.75C599.642 594.512 579.694 618.211 559.921 642.074C555.354 647.586 550.397 652.815 545.725 658.25C543.899 660.374 541.716 662.451 540.131 664.75C539.514 665.644 539.276 666.489 538.953 667.5L522.661 727.929L558.879 714.24L581.916 705.868C585.532 704.38 587.945 701.071 590.491 698.222C595.049 693.12 599.433 687.867 603.829 682.625C612.231 672.603 620.581 662.574 628.913 652.495C639.289 639.945 649.81 627.484 660.25 614.984C701.987 565.008 744.589 515.766 786.219 465.693C802.555 446.042 819.062 426.536 835.388 406.88C847.618 392.157 859.395 376.655 872.472 362.694C868.907 359.852 864.953 357.499 861.294 354.755C854.053 349.326 846.8 343.868 839.617 338.363C835.101 334.903 830.82 331.173 825.985 328.14C825.028 327.539 824.154 326.709 823.01 326.75ZM246.99 346.75L211.131 347.264C217.731 357.853 227.453 365.244 239.744 367.849C244.37 368.829 249.612 368.648 254.343 368.791C257.87 368.636 261.743 368.728 265.198 368.051C272.863 366.548 278.98 361.729 284.141 356.139C286.693 353.375 288.543 350.446 290.162 347.047L246.99 346.75ZM245.52 467.196C239.123 468.011 233.655 469.408 227.782 472.12C222.407 474.603 216.982 478.676 213.618 483.557L211.613 486.46C216.84 487.507 222.511 486.901 227.829 486.877C237.074 486.836 246.326 486.761 255.57 486.878C266.5 486.948 278.198 487.839 289.045 486.652C282.367 477.498 272.299 469.606 260.859 467.665L259.25 467.427L258.47 467.301C254.374 466.681 249.628 466.713 245.52 467.196ZM234.907 516.72L209.791 517.052C210.942 518.906 211.931 520.985 213.179 522.75C218.884 530.823 228.615 537.507 238.239 539.821L239.5 540.078L248.981 541.673C254.435 542.434 260.049 541.405 265.38 540.293C274.421 538.341 283.204 531.41 288.186 523.746C289.435 521.825 290.334 519.64 291.184 517.519L234.907 516.72ZM244.747 643.693C232.76 644.973 222.241 650.395 214.487 659.747L211.291 664.427L256.63 665.484L289.824 664.993C286.154 656.581 275.783 648.888 267.234 645.622C260.528 643.059 251.867 642.939 244.747 643.693ZM223.883 695.729L211.62 696.036C219.475 708.325 228.281 714.507 242.558 717.624C252.899 719.881 265.729 719.199 275.081 714.017C282.164 709.285 287.193 704.066 290.344 696.047L223.883 695.729Z"/>
</svg>
